# xmcd CD database file
#
# Track frame offsets:
#	150
#	9716
#	20925
#	34114
#	47249
#	56578
#	67110
#	69118
#	85618
#	94692
#	103642
#	112823
#	122982
#	130507
#
# Disc length: 1907 seconds
#
# Revision: 0
# Processed by: cddbd v1.4PL0 Copyright (c) Steve Scherf et al.
# Submitted via: CDex 1.40Release
#
DISCID=b707710e
DTITLE=Kirk Rundstrom - Wicked Savior
DYEAR=1999
DGENRE=Country
TTITLE0=Big Black Ford
TTITLE1=Drinkin Again
TTITLE2=Outlaw
TTITLE3=Whiskey's Gone
TTITLE4=Danger
TTITLE5=Come out and PLay
TTITLE6=Hell it's Me
TTITLE7=Mines
TTITLE8=Riders
TTITLE9=S.O.B.
TTITLE10=John
TTITLE11=Veil
TTITLE12=Gun in Hand
TTITLE13=Wicked Savior
EXTD=YEAR: 1999 ID3G: 2
EXTT0=
EXTT1=
EXTT2=
EXTT3=
EXTT4=
EXTT5=
EXTT6=
EXTT7=
EXTT8=
EXTT9=
EXTT10=
EXTT11=
EXTT12=
EXTT13=
PLAYORDER=
